<?xml version="1.0" encoding="UTF-8" standalone="no"?>
<!-- Created with Inkscape (http://www.inkscape.org/) -->

<svg
   xmlns:dc="http://purl.org/dc/elements/1.1/"
   xmlns:cc="http://creativecommons.org/ns#"
   xmlns:rdf="http://www.w3.org/1999/02/22-rdf-syntax-ns#"
   xmlns:svg="http://www.w3.org/2000/svg"
   xmlns="http://www.w3.org/2000/svg"
   xmlns:sodipodi="http://sodipodi.sourceforge.net/DTD/sodipodi-0.dtd"
   xmlns:inkscape="http://www.inkscape.org/namespaces/inkscape"
   width="210mm"
   height="297mm"
   viewBox="0 0 744.09448819 1052.3622047"
   id="svg2"
   version="1.1"
   inkscape:version="0.91 r13725"
   sodipodi:docname="git.svg">
  <defs
     id="defs4" />
  <sodipodi:namedview
     id="base"
     pagecolor="#ffffff"
     bordercolor="#666666"
     borderopacity="1.0"
     inkscape:pageopacity="0.0"
     inkscape:pageshadow="2"
     inkscape:zoom="7.2407734"
     inkscape:cx="108.00512"
     inkscape:cy="884.01898"
     inkscape:document-units="px"
     inkscape:current-layer="layer4"
     showgrid="false"
     inkscape:window-width="1920"
     inkscape:window-height="1016"
     inkscape:window-x="0"
     inkscape:window-y="27"
     inkscape:window-maximized="1" />
  <metadata
     id="metadata7">
    <rdf:RDF>
      <cc:Work
         rdf:about="">
        <dc:format>image/svg+xml</dc:format>
        <dc:type
           rdf:resource="http://purl.org/dc/dcmitype/StillImage" />
        <dc:title />
      </cc:Work>
    </rdf:RDF>
  </metadata>
  <g
     inkscape:groupmode="layer"
     id="layer2"
     inkscape:label="bg"
     sodipodi:insensitive="true"
     style="display:inline">
    <rect
       style="fill:#5a5a5a;fill-opacity:1;stroke:none;stroke-width:8;stroke-miterlimit:4;stroke-dasharray:none;stroke-dashoffset:0;stroke-opacity:1"
       id="rect4137"
       width="678.82251"
       height="899.03577"
       x="29.294424"
       y="52.311184" />
  </g>
  <g
     inkscape:groupmode="layer"
     id="layer3"
     inkscape:label="line"
     style="display:inline"
     sodipodi:insensitive="true">
    <rect
       style="display:inline;fill:#ffffff;fill-opacity:1;stroke:none;stroke-width:8;stroke-miterlimit:4;stroke-dasharray:none;stroke-dashoffset:0;stroke-opacity:1"
       id="rect4268"
       width="4.0242715"
       height="55.504204"
       x="100.181"
       y="166.83229" />
  </g>
  <g
     style="display:inline"
     inkscape:label="line-h"
     id="g3374"
     inkscape:groupmode="layer"
     sodipodi:insensitive="true">
    <rect
       y="-129.94524"
       x="192.57225"
       height="55.504204"
       width="4.0242715"
       id="rect3376"
       style="display:inline;fill:#ffffff;fill-opacity:1;stroke:none;stroke-width:8;stroke-miterlimit:4;stroke-dasharray:none;stroke-dashoffset:0;stroke-opacity:1"
       transform="matrix(0,1,-1,0,0,0)" />
  </g>
  <g
     inkscape:groupmode="layer"
     id="layer6"
     inkscape:label="right"
     style="display:inline"
     sodipodi:insensitive="true">
    <path
       inkscape:connector-curvature="0"
       id="path4279"
       d="m 127.32258,192.57646 a 27.142857,27.142857 0 0 0 -27.14258,27.14258 27.142857,27.142857 0 0 0 0.0391,0.78516 l 3.91602,0 a 23.214287,23.214287 0 0 1 -0.0273,-0.78516 23.214287,23.214287 0 0 1 23.21485,-23.21289 23.214287,23.214287 0 0 1 0.84375,0.041 l 0,-3.94141 a 27.142857,27.142857 0 0 0 -0.84375,-0.0293 z"
       style="display:inline;fill:#ffffff;fill-opacity:1;stroke:none;stroke-width:8;stroke-miterlimit:4;stroke-dasharray:none;stroke-dashoffset:0;stroke-opacity:1" />
    <path
       inkscape:connector-curvature="0"
       id="path4281"
       d="m 127.14648,192.57779 0,1.23853 -1.98242,0 0,2.77938 4.78125,0 0,-4.01791 -2.79883,0 z"
       style="display:inline;fill:#ffffff;fill-opacity:1;stroke:none;stroke-width:8;stroke-miterlimit:4;stroke-dasharray:none;stroke-dashoffset:0;stroke-opacity:1" />
    <rect
       style="display:inline;fill:#ffffff;fill-opacity:1;stroke:none;stroke-width:8;stroke-miterlimit:4;stroke-dasharray:none;stroke-dashoffset:0;stroke-opacity:1"
       id="rect4285"
       width="4.0242715"
       height="2.7815475"
       x="100.181"
       y="219.55495" />
    <rect
       y="217.00273"
       x="101.34109"
       height="5.3337612"
       width="2.8641744"
       id="rect4288"
       style="display:inline;fill:#ffffff;fill-opacity:1;stroke:none;stroke-width:8;stroke-miterlimit:4;stroke-dasharray:none;stroke-dashoffset:0;stroke-opacity:1" />
  </g>
  <g
     style="display:inline"
     inkscape:label="right up"
     id="g4188"
     inkscape:groupmode="layer"
     sodipodi:insensitive="true">
    <g
       id="g4198"
       transform="matrix(1,0,0,-1,0,389.15703)">
      <path
         inkscape:connector-curvature="0"
         id="path4190"
         d="m 127.32258,192.57646 a 27.142857,27.142857 0 0 0 -27.14258,27.14258 27.142857,27.142857 0 0 0 0.0391,0.78516 l 3.91602,0 a 23.214287,23.214287 0 0 1 -0.0273,-0.78516 23.214287,23.214287 0 0 1 23.21485,-23.21289 23.214287,23.214287 0 0 1 0.84375,0.041 l 0,-3.94141 a 27.142857,27.142857 0 0 0 -0.84375,-0.0293 z"
         style="display:inline;fill:#ffffff;fill-opacity:1;stroke:none;stroke-width:8;stroke-miterlimit:4;stroke-dasharray:none;stroke-dashoffset:0;stroke-opacity:1" />
      <path
         inkscape:connector-curvature="0"
         id="path4192"
         d="m 127.14648,192.57779 0,1.23853 -1.98242,0 0,2.77938 4.78125,0 0,-4.01791 -2.79883,0 z"
         style="display:inline;fill:#ffffff;fill-opacity:1;stroke:none;stroke-width:8;stroke-miterlimit:4;stroke-dasharray:none;stroke-dashoffset:0;stroke-opacity:1" />
      <rect
         style="display:inline;fill:#ffffff;fill-opacity:1;stroke:none;stroke-width:8;stroke-miterlimit:4;stroke-dasharray:none;stroke-dashoffset:0;stroke-opacity:1"
         id="rect4194"
         width="4.0242715"
         height="2.7815475"
         x="100.181"
         y="219.55495" />
      <rect
         y="217.00273"
         x="101.34109"
         height="5.3337612"
         width="2.8641744"
         id="rect4196"
         style="display:inline;fill:#ffffff;fill-opacity:1;stroke:none;stroke-width:8;stroke-miterlimit:4;stroke-dasharray:none;stroke-dashoffset:0;stroke-opacity:1" />
    </g>
  </g>
  <g
     style="display:inline"
     inkscape:label="left"
     id="g4290"
     inkscape:groupmode="layer"
     sodipodi:insensitive="true">
    <path
       style="display:inline;fill:#ffffff;fill-opacity:1;stroke:none;stroke-width:8;stroke-miterlimit:4;stroke-dasharray:none;stroke-dashoffset:0;stroke-opacity:1"
       d="m 77.04773,192.57646 a 27.142857,27.142857 0 0 1 27.14258,27.14258 27.142857,27.142857 0 0 1 -0.0391,0.78516 l -3.91602,0 a 23.214287,23.214287 0 0 0 0.0273,-0.78516 23.214287,23.214287 0 0 0 -23.21485,-23.21289 23.214287,23.214287 0 0 0 -0.84375,0.041 l 0,-3.94141 a 27.142857,27.142857 0 0 1 0.84375,-0.0293 z"
       id="path4292"
       inkscape:connector-curvature="0"
       inkscape:transform-center-x="12.048055"
       inkscape:transform-center-y="-0.66614722" />
    <path
       style="display:inline;fill:#ffffff;fill-opacity:1;stroke:none;stroke-width:8;stroke-miterlimit:4;stroke-dasharray:none;stroke-dashoffset:0;stroke-opacity:1"
       d="m 77.22383,192.57779 0,1.23853 1.98242,0 0,2.77938 -4.78125,0 0,-4.01791 2.79883,0 z"
       id="path4294"
       inkscape:connector-curvature="0"
       inkscape:transform-center-x="25.42953"
       inkscape:transform-center-y="-12.619722" />
    <rect
       y="219.55495"
       x="-104.18931"
       height="2.7815475"
       width="4.0242715"
       id="rect4296"
       style="display:inline;fill:#ffffff;fill-opacity:1;stroke:none;stroke-width:8;stroke-miterlimit:4;stroke-dasharray:none;stroke-dashoffset:0;stroke-opacity:1"
       inkscape:transform-center-x="0.067977699"
       inkscape:transform-center-y="13.739253"
       transform="scale(-1,1)" />
    <rect
       style="display:inline;fill:#ffffff;fill-opacity:1;stroke:none;stroke-width:8;stroke-miterlimit:4;stroke-dasharray:none;stroke-dashoffset:0;stroke-opacity:1"
       id="rect4298"
       width="2.8641744"
       height="5.3337612"
       x="-103.02923"
       y="217.00273"
       inkscape:transform-center-x="0.6480091"
       inkscape:transform-center-y="12.463145"
       transform="scale(-1,1)" />
  </g>
  <g
     inkscape:groupmode="layer"
     id="g3365"
     inkscape:label="left up"
     style="display:inline"
     sodipodi:insensitive="true">
    <g
       id="g4181">
      <path
         style="display:inline;fill:#ffffff;fill-opacity:1;stroke:none;stroke-width:8;stroke-miterlimit:4;stroke-dasharray:none;stroke-dashoffset:0;stroke-opacity:1"
         d="m 77.059937,196.59256 a 27.142857,27.142857 0 0 0 27.142583,-27.14258 27.142857,27.142857 0 0 0 -0.0391,-0.78516 l -3.91602,0 a 23.214287,23.214287 0 0 1 0.0273,0.78516 23.214287,23.214287 0 0 1 -23.214853,23.21289 23.214287,23.214287 0 0 1 -0.84375,-0.041 l 0,3.94141 a 27.142857,27.142857 0 0 0 0.84375,0.0293 z"
         id="path3367"
         inkscape:connector-curvature="0"
         inkscape:transform-center-x="12.048055"
         inkscape:transform-center-y="0.66614722" />
      <path
         style="display:inline;fill:#ffffff;fill-opacity:1;stroke:none;stroke-width:8;stroke-miterlimit:4;stroke-dasharray:none;stroke-dashoffset:0;stroke-opacity:1"
         d="m 75.973331,192.61158 0,1.22811 1.096689,0 0,2.75601 -2.64502,0 0,-3.98412 1.548331,0 z"
         id="path3369"
         inkscape:connector-curvature="0"
         inkscape:transform-center-x="14.067786"
         inkscape:transform-center-y="-12.513602" />
      <rect
         y="167.73085"
         x="100.18311"
         height="1.8676758"
         width="4.0161133"
         id="rect3375"
         style="fill:#ffffff;fill-opacity:1;fill-rule:evenodd;stroke:none;stroke-width:1px;stroke-linecap:butt;stroke-linejoin:miter;stroke-opacity:1" />
      <rect
         style="fill:#ffffff;fill-opacity:1;fill-rule:evenodd;stroke:none;stroke-width:1px;stroke-linecap:butt;stroke-linejoin:miter;stroke-opacity:1"
         id="rect4177"
         width="2.4658203"
         height="3.9428711"
         x="100.18311"
         y="167.73085" />
      <path
         inkscape:transform-center-y="-8.7089703"
         inkscape:transform-center-x="41.805519"
         inkscape:connector-curvature="0"
         id="path4179"
         d="m 79.023372,192.61441 0,0.85471 3.25905,0 0,1.91808 -7.860257,0 0,-2.77279 4.601207,0 z"
         style="display:inline;fill:#ffffff;fill-opacity:1;stroke:none;stroke-width:8;stroke-miterlimit:4;stroke-dasharray:none;stroke-dashoffset:0;stroke-opacity:1" />
    </g>
  </g>
  <g
     inkscape:groupmode="layer"
     id="layer8"
     inkscape:label="user1"
     style="display:inline"
     sodipodi:insensitive="true">
    <path
       inkscape:connector-curvature="0"
       id="path4322"
       d="m 102.14258,116.55287 a 23.666122,23.666122 0 0 0 -23.665881,23.66588 23.666122,23.666122 0 0 0 23.665881,23.66588 23.666122,23.666122 0 0 0 23.66588,-23.66588 23.666122,23.666122 0 0 0 -23.66588,-23.66588 z"
       style="display:inline;fill:#5e318c;fill-opacity:1;stroke:none;stroke-width:8;stroke-miterlimit:4;stroke-dasharray:none;stroke-dashoffset:0;stroke-opacity:1" />
  </g>
  <g
     inkscape:label="circle"
     inkscape:groupmode="layer"
     id="layer1"
     sodipodi:insensitive="true"
     style="display:inline">
    <path
       style="fill:#ffffff;fill-opacity:1;stroke:none;stroke-width:8;stroke-miterlimit:4;stroke-dasharray:none;stroke-dashoffset:0;stroke-opacity:1"
       d="M 102.14258,113.07617 A 27.142857,27.142857 0 0 0 75,140.21875 a 27.142857,27.142857 0 0 0 27.14258,27.14258 27.142857,27.142857 0 0 0 27.14258,-27.14258 27.142857,27.142857 0 0 0 -27.14258,-27.14258 z m 0,3.92969 a 23.214287,23.214287 0 0 1 23.21484,23.21289 23.214287,23.214287 0 0 1 -23.21484,23.21484 23.214287,23.214287 0 0 1 -23.214846,-23.21484 23.214287,23.214287 0 0 1 23.214846,-23.21289 z"
       id="path4142"
       inkscape:connector-curvature="0" />
  </g>
  <g
     style="display:inline"
     id="g4300"
     inkscape:groupmode="layer"
     inkscape:label="dot"
     sodipodi:insensitive="true">
    <path
       style="fill:#ffffff;fill-opacity:1;stroke:none;stroke-width:8;stroke-miterlimit:4;stroke-dasharray:none;stroke-dashoffset:0;stroke-opacity:1"
       d="m 102.14258,124.70117 a 15.517738,15.517738 0 0 0 -15.51758,15.51758 15.517738,15.517738 0 0 0 15.51758,15.51758 15.517738,15.517738 0 0 0 15.51758,-15.51758 15.517738,15.517738 0 0 0 -15.51758,-15.51758 z"
       id="path4302"
       inkscape:connector-curvature="0" />
    <rect
       y="112.532"
       x="100.181"
       height="55.504204"
       width="4.0242715"
       id="rect4318"
       style="display:inline;fill:#ffffff;fill-opacity:1;stroke:none;stroke-width:8;stroke-miterlimit:4;stroke-dasharray:none;stroke-dashoffset:0;stroke-opacity:1" />
  </g>
  <g
     inkscape:groupmode="layer"
     id="layer7"
     inkscape:label="dot_r"
     sodipodi:insensitive="true"
     style="display:inline">
    <rect
       y="105.92938"
       x="-142.1962"
       height="24.015854"
       width="4.0242715"
       id="rect4309"
       style="display:inline;fill:#ffffff;fill-opacity:1;stroke:none;stroke-width:8;stroke-miterlimit:4;stroke-dasharray:none;stroke-dashoffset:0;stroke-opacity:1"
       transform="matrix(0,-1,1,0,0,0)" />
  </g>
  <g
     inkscape:label="dot_l"
     id="g4314"
     inkscape:groupmode="layer"
     sodipodi:insensitive="true"
     style="display:inline">
    <rect
       transform="matrix(0,-1,1,0,0,0)"
       style="display:inline;fill:#ffffff;fill-opacity:1;stroke:none;stroke-width:8;stroke-miterlimit:4;stroke-dasharray:none;stroke-dashoffset:0;stroke-opacity:1"
       id="rect4316"
       width="4.0242715"
       height="26.156509"
       x="-142.1962"
       y="74.717239" />
  </g>
  <g
     inkscape:groupmode="layer"
     id="layer4"
     inkscape:label="TILE"
     style="display:inline"
     sodipodi:insensitive="true">
    <rect
       style="fill:#ff8080;fill-opacity:0.39650149;stroke:none;stroke-width:8;stroke-miterlimit:4;stroke-dasharray:none;stroke-dashoffset:0;stroke-opacity:1"
       id="rect4149"
       width="54.514732"
       height="54.514732"
       x="74.812454"
       y="112.94884"
       inkscape:export-filename="/home/micralon/merge_r.png"
       inkscape:export-xdpi="82"
       inkscape:export-ydpi="82" />
    <rect
       y="167.45847"
       x="74.812454"
       height="54.514732"
       width="54.514732"
       id="rect4151"
       style="fill:#ff8080;fill-opacity:0.39650149;stroke:none;stroke-width:8;stroke-miterlimit:4;stroke-dasharray:none;stroke-dashoffset:0;stroke-opacity:1"
       inkscape:export-filename="/home/micralon/line_r_down.png"
       inkscape:export-xdpi="82.546432"
       inkscape:export-ydpi="82.546432" />
    <rect
       style="fill:#ff8080;fill-opacity:0.39650149;stroke:none;stroke-width:8;stroke-miterlimit:4;stroke-dasharray:none;stroke-dashoffset:0;stroke-opacity:1"
       id="rect4153"
       width="54.514732"
       height="54.514732"
       x="74.812454"
       y="221.96848" />
  </g>
</svg>
